<svg width="250" height="201" viewBox="0 0 250 201" fill="none" xmlns="http://www.w3.org/2000/svg">
<rect y="0.5" width="250" height="200" fill="white"/>
<path fill-rule="evenodd" clip-rule="evenodd" d="M63 134.5H154C154.515 134.5 155.017 134.444 155.5 134.339C155.983 134.444 156.485 134.5 157 134.5H209C212.866 134.5 216 131.366 216 127.5C216 123.634 212.866 120.5 209 120.5H203C199.134 120.5 196 117.366 196 113.5C196 109.634 199.134 106.5 203 106.5H222C225.866 106.5 229 103.366 229 99.5C229 95.634 225.866 92.5 222 92.5H200C203.866 92.5 207 89.366 207 85.5C207 81.634 203.866 78.5 200 78.5H136C139.866 78.5 143 75.366 143 71.5C143 67.634 139.866 64.5 136 64.5H79C75.134 64.5 72 67.634 72 71.5C72 75.366 75.134 78.5 79 78.5H39C35.134 78.5 32 81.634 32 85.5C32 89.366 35.134 92.5 39 92.5H64C67.866 92.5 71 95.634 71 99.5C71 103.366 67.866 106.5 64 106.5H24C20.134 106.5 17 109.634 17 113.5C17 117.366 20.134 120.5 24 120.5H63C59.134 120.5 56 123.634 56 127.5C56 131.366 59.134 134.5 63 134.5ZM226 134.5C229.866 134.5 233 131.366 233 127.5C233 123.634 229.866 120.5 226 120.5C222.134 120.5 219 123.634 219 127.5C219 131.366 222.134 134.5 226 134.5Z" fill="#FFE6E5"/>
<path d="M172.5 45.5V51.5" stroke="#FD6871" stroke-width="2.5" stroke-linecap="round" stroke-linejoin="round"/>
<path d="M172.5 59.5V65.5" stroke="#FD6871" stroke-width="2.5" stroke-linecap="round" stroke-linejoin="round"/>
<path d="M162.5 55.5H168.5" stroke="#FD6871" stroke-width="2.5" stroke-linecap="round" stroke-linejoin="round"/>
<path d="M176.5 55.5H182.5" stroke="#FD6871" stroke-width="2.5" stroke-linecap="round" stroke-linejoin="round"/>
<path d="M89.5 148.5V152.5" stroke="#FD6871" stroke-width="2.5" stroke-linecap="round" stroke-linejoin="round"/>
<path d="M89.5 160.5V164.5" stroke="#FD6871" stroke-width="2.5" stroke-linecap="round" stroke-linejoin="round"/>
<path d="M81.5 156.5H85.5" stroke="#FD6871" stroke-width="2.5" stroke-linecap="round" stroke-linejoin="round"/>
<path d="M93.5 156.5H97.5" stroke="#FD6871" stroke-width="2.5" stroke-linecap="round" stroke-linejoin="round"/>
<path fill-rule="evenodd" clip-rule="evenodd" d="M160.711 131.626C162.102 129.923 163.352 128.142 164.461 126.299C166.901 122.244 168.66 117.888 169.734 113.397C170.821 108.856 171.209 104.176 170.894 99.5296C170.62 95.4756 169.811 91.4475 168.465 87.5598C167.131 83.7028 165.268 79.984 162.875 76.515C161.45 74.4479 159.836 72.4696 158.034 70.6036C155.388 67.864 152.486 65.5219 149.402 63.5787C146.089 61.4908 142.566 59.8634 138.926 58.6984C134.368 57.2393 129.628 56.5054 124.886 56.5C121.197 56.4959 117.507 56.9328 113.902 57.8125C109.845 58.8028 105.895 60.3543 102.177 62.4692C98.9076 64.3284 95.817 66.623 92.988 69.3547C89.4328 72.7875 86.553 76.6572 84.3512 80.7985C82.1956 84.8531 80.6899 89.1682 79.8366 93.5887C78.9574 98.1429 78.7706 102.809 79.2789 107.418C79.9378 113.391 81.7643 119.268 84.7644 124.679C86.684 128.141 89.0842 131.412 91.9663 134.396C96.5416 139.134 101.883 142.683 107.604 145.035C114.562 147.897 122.081 148.989 129.465 148.3C135.662 147.721 141.765 145.887 147.361 142.79" fill="white"/>
<path d="M160.711 131.626C162.102 129.923 163.352 128.142 164.461 126.299C166.901 122.244 168.66 117.888 169.734 113.397C170.821 108.856 171.209 104.176 170.894 99.5296C170.62 95.4756 169.811 91.4475 168.465 87.5598C167.131 83.7028 165.268 79.984 162.875 76.515C161.45 74.4479 159.836 72.4696 158.034 70.6036C155.388 67.864 152.486 65.5219 149.402 63.5787C146.089 61.4908 142.566 59.8634 138.926 58.6984C134.368 57.2393 129.628 56.5054 124.886 56.5C121.197 56.4959 117.507 56.9328 113.902 57.8125C109.845 58.8028 105.895 60.3543 102.177 62.4692C98.9076 64.3284 95.817 66.623 92.988 69.3547C89.4328 72.7875 86.553 76.6572 84.3512 80.7985C82.1956 84.8531 80.6899 89.1682 79.8366 93.5887C78.9574 98.1429 78.7706 102.809 79.2789 107.418C79.9378 113.391 81.7643 119.268 84.7644 124.679C86.684 128.141 89.0842 131.412 91.9663 134.396C96.5416 139.134 101.883 142.683 107.604 145.035C114.562 147.897 122.081 148.989 129.465 148.3C135.662 147.721 141.765 145.887 147.361 142.79" stroke="#E31430" stroke-width="2.5" stroke-linecap="round" stroke-linejoin="round"/>
<path fill-rule="evenodd" clip-rule="evenodd" d="M150.701 140.878C153.607 139.008 156.191 136.674 157.872 134.791L150.701 140.878Z" fill="white"/>
<path d="M150.701 140.878C153.607 139.008 156.191 136.674 157.872 134.791" stroke="#E31430" stroke-width="2.5" stroke-linecap="round"/>
<path d="M167 105.117C166.714 105.122 166.427 105.125 166.14 105.125C140.886 105.125 120.209 85.4362 118.476 60.5C98.3752 63.6706 83 81.1526 83 102.243C83 125.581 101.825 144.5 125.048 144.5C147.309 144.5 165.53 127.115 167 105.117Z" fill="#FFE6E5"/>
<path fill-rule="evenodd" clip-rule="evenodd" d="M109.023 100.873C107.8 99.7433 105.903 99.83 104.785 101.067C103.668 102.303 103.753 104.221 104.977 105.351L119.096 118.389C120.808 119.97 123.465 119.849 125.029 118.118C125.095 118.044 125.095 118.044 125.158 117.969L145.307 93.4716C146.366 92.1837 146.192 90.2716 144.918 89.2008C143.644 88.13 141.752 88.306 140.693 89.5939L121.75 112.625L109.023 100.873Z" fill="white" stroke="#E31430" stroke-width="2.5" stroke-linecap="round"/>
<path fill-rule="evenodd" clip-rule="evenodd" d="M110.824 64.9131C108.874 65.6447 106.969 66.5338 105.128 67.5806C102.269 69.2072 99.5648 71.2149 97.0899 73.6049C96.0754 74.5846 95.1237 75.605 94.235 76.661M91.4851 80.3378C90.7785 81.4057 90.1281 82.5004 89.5342 83.6176C89.0956 84.4428 88.6877 85.2803 88.3106 86.1285" fill="white"/>
<path d="M111.263 66.0835C111.909 65.841 112.237 65.1204 111.994 64.474C111.752 63.8277 111.031 63.5003 110.385 63.7428L111.263 66.0835ZM105.128 67.5806L105.746 68.6671L105.128 67.5806ZM97.0899 73.6049L96.2216 72.7057L97.0899 73.6049ZM93.2786 75.8562C92.8341 76.3844 92.902 77.1729 93.4302 77.6174C93.9584 78.0619 94.7469 77.9941 95.1914 77.4659L93.2786 75.8562ZM92.5275 81.0277C92.9085 80.4519 92.7507 79.6764 92.1749 79.2954C91.5992 78.9144 90.8237 79.0723 90.4427 79.648L92.5275 81.0277ZM89.5342 83.6176L90.638 84.2044L90.638 84.2044L89.5342 83.6176ZM87.1684 85.6206C86.8879 86.2515 87.1719 86.9902 87.8027 87.2707C88.4335 87.5511 89.1723 87.2671 89.4528 86.6363L87.1684 85.6206ZM110.385 63.7428C108.373 64.4973 106.409 65.4143 104.51 66.494L105.746 68.6671C107.529 67.6532 109.374 66.7921 111.263 66.0835L110.385 63.7428ZM104.51 66.494C101.56 68.172 98.7724 70.2424 96.2216 72.7057L97.9582 74.5041C100.357 72.1874 102.977 70.2425 105.746 68.6671L104.51 66.494ZM96.2216 72.7057C95.176 73.7154 94.195 74.7673 93.2786 75.8562L95.1914 77.4659C96.0525 76.4427 96.9747 75.4538 97.9582 74.5041L96.2216 72.7057ZM90.4427 79.648C89.7138 80.7494 89.0431 81.8785 88.4305 83.0309L90.638 84.2044C91.2132 83.1222 91.8431 82.062 92.5275 81.0277L90.4427 79.648ZM88.4305 83.0309C87.978 83.882 87.5573 84.7459 87.1684 85.6206L89.4528 86.6363C89.818 85.8148 90.2131 85.0036 90.638 84.2044L88.4305 83.0309Z" fill="#FD6871"/>
</svg>
