<svg width="16" height="17" viewBox="0 0 16 17" fill="none" xmlns="http://www.w3.org/2000/svg">
<rect x="0.5" y="1" width="15" height="15" rx="7.5" fill="#FE9E17"/>
<rect x="0.5" y="1" width="15" height="15" rx="7.5" stroke="#FE9E17"/>
<path fill-rule="evenodd" clip-rule="evenodd" d="M7.97917 3.5C8.43941 3.5 8.8125 3.8731 8.8125 4.33333L8.8125 10.7222L11.0503 8.591C11.3836 8.27359 11.911 8.28646 12.2284 8.61973C12.5459 8.95301 12.533 9.48049 12.1997 9.79789L8.55388 13.2701C8.23204 13.5766 7.72629 13.5766 7.40446 13.2701L3.75862 9.79789C3.42535 9.48049 3.41248 8.95301 3.72989 8.61973C4.04729 8.28646 4.57477 8.27359 4.90805 8.591L7.14583 10.7222L7.14584 4.33333C7.14584 3.8731 7.51893 3.5 7.97917 3.5Z" fill="white"/>
</svg>
