<svg width="16" height="17" viewBox="0 0 16 17" fill="none" xmlns="http://www.w3.org/2000/svg">
<rect x="0.5" y="1" width="15" height="15" rx="7.5" fill="#FE9E17"/>
<rect x="0.5" y="1" width="15" height="15" rx="7.5" stroke="#FE9E17"/>
<path fill-rule="evenodd" clip-rule="evenodd" d="M7.97921 13.5C7.51897 13.5 7.14587 13.1269 7.14587 12.6667L7.14587 6.27778L4.90808 8.409C4.57481 8.72641 4.04733 8.71354 3.72992 8.38027C3.41252 8.04699 3.42538 7.51951 3.75866 7.20211L7.40449 3.72989C7.72633 3.42337 8.23208 3.42337 8.55392 3.72989L12.1998 7.20211C12.533 7.51951 12.5459 8.04699 12.2285 8.38027C11.9111 8.71354 11.3836 8.72641 11.0503 8.409L8.81254 6.27778L8.81254 12.6667C8.81254 13.1269 8.43944 13.5 7.97921 13.5Z" fill="white"/>
</svg>
